<?xml version="1.0" encoding="UTF-8"?>
<svg xmlns="http://www.w3.org/2000/svg" viewBox="0 0 239 221.2">
  <defs>
    <style>
      .cls-1 {
        fill: #9d3317;
      }
    </style>
  </defs>
  <g id="Layer_1">
    <path d="M208.9,1.8c3.8,0,5.7,1.6,5.7,4.9s-.5,3.1-1.4,4.9l-50.9,87.9c-1.5,2.7-3.8,5-6.8,6.9-3.1,1.9-5.9,2.8-8.4,2.8H10.3c-3.8,0-5.7-1.6-5.7-4.9s.5-3.1,1.4-4.9L56.9,11.6c1.5-2.7,3.8-5,6.8-6.9,3.1-1.9,5.9-2.8,8.4-2.8h136.7ZM139.1,21.3c.9-1.8,1.4-3.4,1.4-4.9,0-3.3-1.8-4.9-5.5-4.9s-5.6,1-8.6,2.9c-3,1.9-5.3,4.2-6.8,6.9l-39.5,68.3c-1,1.8-1.5,3.4-1.5,4.9,0,3.3,1.8,4.9,5.5,4.9s5.6-.9,8.6-2.8c3.1-1.9,5.3-4.2,6.8-6.9l39.5-68.3Z"/>
    <path d="M237.8,90.4c.8,1.4,1.2,3.2,1.2,5.5,0,3.4-.8,6.5-2.4,9.4l-61.4,106.2c-1.5,2.7-3.8,5-6.8,6.9-3.1,1.9-5.9,2.8-8.4,2.8H23.2c-3.8,0-5.7-1.6-5.7-4.9s.5-3.1,1.4-4.9l50.9-87.9c1.5-2.7,3.8-5,6.8-6.9,3.1-1.9,5.9-2.8,8.6-2.8h68.3c2.6,0,5.4-1,8.4-2.9,3-1.9,5.3-4.2,6.8-7l32.7-56.1c2-3.5,4.1-5.3,6.3-5.3s2.2.6,3.1,1.8l27.1,46ZM152,133.3c.9-1.8,1.4-3.4,1.4-4.9,0-3.3-1.8-4.9-5.5-4.9s-5.5,1-8.5,2.9c-3,1.9-5.3,4.2-6.9,6.9l-39.5,68.3c-1,1.8-1.4,3.4-1.4,4.9,0,3.3,1.8,4.9,5.5,4.9s5.6-.9,8.6-2.8c3.1-1.9,5.3-4.2,6.8-6.9l39.5-68.3Z"/>
  </g>
  <g id="Layer_2">
    <path class="cls-1" d="M204.2,0c3.8,0,5.7,1.6,5.7,4.9s-.5,3.1-1.4,4.9l-50.9,87.9c-1.5,2.7-3.8,5-6.8,6.9-3.1,1.9-5.9,2.8-8.4,2.8H5.7c-3.8,0-5.7-1.6-5.7-4.9s.5-3.1,1.4-4.9L52.3,9.8c1.5-2.7,3.8-5,6.8-6.9,3.1-1.9,5.9-2.8,8.4-2.8h136.7ZM134.5,19.5c.9-1.8,1.4-3.4,1.4-4.9,0-3.3-1.8-4.9-5.5-4.9s-5.6,1-8.6,2.9c-3,1.9-5.3,4.2-6.8,6.9l-39.5,68.3c-1,1.8-1.5,3.4-1.5,4.9,0,3.3,1.8,4.9,5.5,4.9s5.6-.9,8.6-2.8c3.1-1.9,5.3-4.2,6.8-6.9l39.5-68.3Z"/>
    <path class="cls-1" d="M233.1,88.1c.8,1.4,1.2,3.2,1.2,5.5,0,3.4-.8,6.5-2.4,9.4l-61.4,106.2c-1.5,2.7-3.8,5-6.8,6.9-3.1,1.9-5.9,2.8-8.4,2.8H18.5c-3.8,0-5.7-1.6-5.7-4.9s.5-3.1,1.4-4.9l50.9-87.9c1.5-2.7,3.8-5,6.8-6.9,3.1-1.9,5.9-2.8,8.6-2.8h68.3c2.6,0,5.4-1,8.4-2.9,3-1.9,5.3-4.2,6.8-7l32.7-56.1c2-3.5,4.1-5.3,6.3-5.3s2.2.6,3.1,1.8l27.1,46ZM147.3,131c.9-1.8,1.4-3.4,1.4-4.9,0-3.3-1.8-4.9-5.5-4.9s-5.5,1-8.5,2.9c-3,1.9-5.3,4.2-6.9,6.9l-39.5,68.3c-1,1.8-1.4,3.4-1.4,4.9,0,3.3,1.8,4.9,5.5,4.9s5.6-.9,8.6-2.8c3.1-1.9,5.3-4.2,6.8-6.9l39.5-68.3Z"/>
  </g>
</svg>